<svg width="512" height="512" viewBox="0 0 512 512" fill="none" xmlns="http://www.w3.org/2000/svg">
<path d="M108.902 500.915C116.761 475.776 128.614 440.397 144.512 389.248C213.811 378.266 242.483 397.978 286.49 319.386C250.778 330.317 207.718 299.11 210.022 285.568C212.352 272.051 310.195 295.322 374.272 204.339C293.504 222.157 267.674 182.938 278.093 177.024C302.131 163.354 373.478 171.341 411.52 134.298C431.13 115.226 440.32 68.864 432.333 52.3264C422.758 32.3328 364.339 2.50881 332.134 5.32481C299.93 8.11521 249.421 127.949 234.419 127.027C219.469 126.08 216.422 73.3184 242.585 24.2944C215.014 36.5056 164.48 74.4448 148.633 106.88C119.117 167.219 151.398 305.69 141.056 310.605C130.688 315.546 95.8462 247.091 85.4526 216.038C71.2446 263.629 70.9118 311.296 112.409 374.605C96.7678 416.154 88.2174 463.974 86.9118 488.294C86.2974 507.725 105.446 511.898 108.902 500.915Z" fill="url(#paint0_radial_407_17)"/>
<defs>
<radialGradient id="paint0_radial_407_17" cx="0" cy="0" r="1" gradientUnits="userSpaceOnUse" gradientTransform="translate(256.003 256.009) rotate(119.339) scale(268.207 226.275)">
<stop offset="0.0372836" stop-color="#FFAD33"/>
<stop offset="1" stop-color="#F9ED32"/>
</radialGradient>
</defs>
</svg>
