<?xml version="1.0" encoding="utf-8"?>

<!-- Uploaded to: SVG Repo, www.svgrepo.com, Generator: SVG Repo Mixer Tools -->
<svg version="1.1" id="Icons" xmlns="http://www.w3.org/2000/svg" xmlns:xlink="http://www.w3.org/1999/xlink" 
	 viewBox="0 0 32 32" xml:space="preserve">
<style type="text/css">
	.st0{fill:none;stroke:#000000;stroke-width:2;stroke-linecap:round;stroke-linejoin:round;stroke-miterlimit:10;}
</style>
<polygon points="23,2.6 23,8 28.4,8 "/>
<path d="M14.8,1.6c0.3-0.4,0.3-1-0.1-1.3s-0.9-0.4-1.3-0.1c-3.6,2.8-5.1,2.8-8.8,0c-0.4-0.3-1-0.3-1.3,0.1C2.9,0.6,2.9,1.2,3.2,1.6
	c2.8,3.6,2.8,5.1,0,8.8c-0.3,0.4-0.3,1,0.1,1.3c0.4,0.4,0.9,0.4,1.3,0.1c3.6-2.8,5.1-2.8,8.8,0c0.2,0.1,0.4,0.2,0.6,0.2
	c0.3,0,0.5-0.1,0.7-0.3c0.4-0.4,0.4-0.9,0.1-1.3C11.9,6.7,11.9,5.3,14.8,1.6z"/>
<path d="M26.5,10H22c-0.6,0-1-0.4-1-1V2h-4.2c-0.1,0.3-0.3,0.6-0.5,0.8c-2.3,2.9-2.3,3.4,0,6.3c0.9,1.2,0.8,2.9-0.2,4
	C15.6,13.7,14.8,14,14,14c-0.7,0-1.3-0.2-1.8-0.6c-1.5-1.1-2.3-1.7-3.2-1.7V29c0,0.6,0.4,1,1,1h18c0.6,0,1-0.4,1-1V12.5
	C29,11.1,27.9,10,26.5,10z"/>
</svg>